<svg width="86" height="68" viewBox="0 0 86 68" fill="none" xmlns="http://www.w3.org/2000/svg">
<mask id="mask0_40_18" style="mask-type:luminance" maskUnits="userSpaceOnUse" x="8" y="6" width="70" height="56">
<path d="M43 28.3333C44.647 28.3333 46.2779 28.0768 47.7995 27.5785C49.3211 27.0801 50.7037 26.3497 51.8683 25.4288C53.0329 24.508 53.9567 23.4148 54.587 22.2116C55.2173 21.0085 55.5417 19.7189 55.5417 18.4167C55.5417 17.1144 55.2173 15.8249 54.587 14.6217C53.9567 13.4186 53.0329 12.3254 51.8683 11.4045C50.7037 10.4837 49.3211 9.75322 47.7995 9.25486C46.2779 8.7565 44.647 8.5 43 8.5C39.6737 8.5 36.4837 9.54479 34.1317 11.4045C31.7797 13.2643 30.4583 15.7866 30.4583 18.4167C30.4583 21.0467 31.7797 23.5691 34.1317 25.4288C36.4837 27.2885 39.6737 28.3333 43 28.3333ZM10.75 57.8V59.5H75.25V57.8C75.25 51.4533 75.25 48.28 73.6877 45.8547C72.3135 43.7223 70.1209 41.9885 67.424 40.902C64.3567 39.6667 60.3433 39.6667 52.3167 39.6667H33.6833C25.6567 39.6667 21.6433 39.6667 18.576 40.902C15.8791 41.9885 13.6865 43.7223 12.3123 45.8547C10.75 48.28 10.75 51.4533 10.75 57.8Z" fill="#555555" stroke="white" stroke-width="4" stroke-linecap="round" stroke-linejoin="round"/>
</mask>
<g mask="url(#mask0_40_18)">
<path d="M0 0H86V68H0V0Z" fill="#2C3E50"/>
</g>
</svg>
