<svg width="30" height="30" viewBox="0 0 30 30" fill="none" xmlns="http://www.w3.org/2000/svg">
<g clip-path="url(#clip0_28_67)">
<path d="M7.5 1.5C6.70435 1.5 5.94129 1.81607 5.37868 2.37868C4.81607 2.94129 4.5 3.70435 4.5 4.5V6C4.5 13.5 7.5 18 15 18V13.5L22.5 19.5L15 25.5V21C10.23 21 6.735 19.725 4.5 16.98V25.5C4.5 26.2956 4.81607 27.0587 5.37868 27.6213C5.94129 28.1839 6.70435 28.5 7.5 28.5H22.5C23.2956 28.5 24.0587 28.1839 24.6213 27.6213C25.1839 27.0587 25.5 26.2956 25.5 25.5V4.5C25.5 3.70435 25.1839 2.94129 24.6213 2.37868C24.0587 1.81607 23.2956 1.5 22.5 1.5H7.5Z" fill="#2C3E50"/>
</g>
<defs>
<clipPath id="clip0_28_67">
<rect width="30" height="30" fill="white"/>
</clipPath>
</defs>
</svg>
