<svg width="55" height="59" viewBox="0 0 55 59" fill="none" xmlns="http://www.w3.org/2000/svg">
<path d="M27.37 0C20.1127 0 13.1462 3.05784 8.01856 8.4955C2.88567 13.9353 0.00142183 21.3128 0 29.0057C0 36.6954 2.88668 44.0783 8.01856 49.5159C13.1462 54.9536 20.1127 58.0114 27.37 58.0114C34.6273 58.0114 41.5939 54.9536 46.7215 49.5159C51.8534 44.0783 54.74 36.6954 54.74 29.0057C54.74 21.316 51.8534 13.9332 46.7215 8.4955C41.5939 3.05784 34.6273 0 27.37 0Z" fill="url(#paint0_linear_28_42)"/>
<path d="M12.3893 28.6992C20.3694 25.0155 25.6894 22.5867 28.3494 21.4134C35.9532 18.0628 37.5312 17.4808 38.5619 17.4611C38.7885 17.4573 39.2932 17.5166 39.6225 17.7988C39.8962 18.0367 39.9731 18.3585 40.0116 18.5844C40.0458 18.8101 40.0929 19.3245 40.0544 19.726C39.6438 24.3126 37.8605 35.4426 36.9539 40.5798C36.5733 42.7534 35.8163 43.4822 35.085 43.5533C33.4941 43.7083 32.2881 42.4402 30.7486 41.3711C28.3409 39.6974 26.9809 38.6559 24.6416 37.023C21.9389 35.1358 23.6922 34.0984 25.2318 32.4034C25.6338 31.9597 32.6388 25.209 32.7714 24.5967C32.7885 24.5201 32.8056 24.2346 32.6431 24.0842C32.4849 23.9332 32.2497 23.9849 32.0786 24.0257C31.8348 24.0837 27.9902 26.7794 20.5319 32.1124C19.4413 32.9073 18.4535 33.2948 17.5639 33.2744C16.5889 33.2522 14.7072 32.6889 13.3087 32.2076C11.5981 31.617 10.2339 31.3048 10.3536 30.3018C10.4135 29.7797 11.0935 29.2454 12.3893 28.6992Z" fill="white"/>
<defs>
<linearGradient id="paint0_linear_28_42" x1="2737" y1="0" x2="2737" y2="5801.14" gradientUnits="userSpaceOnUse">
<stop stop-color="#2AABEE"/>
<stop offset="1" stop-color="#229ED9"/>
</linearGradient>
</defs>
</svg>
