<svg width="29" height="29" viewBox="0 0 29 29" fill="none" xmlns="http://www.w3.org/2000/svg">
<path d="M14.4459 0.571411C10.6422 0.571411 6.99084 2.05334 4.30333 4.68862C1.61304 7.32494 0.101331 10.9003 0.100586 14.6286C0.100586 18.3552 1.61357 21.9332 4.30333 24.5685C6.99084 27.2038 10.6422 28.6857 14.4459 28.6857C18.2497 28.6857 21.901 27.2038 24.5885 24.5685C27.2783 21.9332 28.7913 18.3552 28.7913 14.6286C28.7913 10.9019 27.2783 7.32389 24.5885 4.68862C21.901 2.05334 18.2497 0.571411 14.4459 0.571411Z" fill="url(#paint0_linear_26_337)"/>
<path d="M6.59409 14.4801C10.7767 12.6949 13.565 11.5178 14.9592 10.9491C18.9445 9.32532 19.7716 9.0433 20.3118 9.03374C20.4306 9.03188 20.6951 9.06065 20.8677 9.19738C21.0112 9.31269 21.0515 9.46864 21.0717 9.57813C21.0896 9.68751 21.1143 9.93681 21.0941 10.1314C20.8789 12.3542 19.9442 17.7482 19.469 20.2378C19.2696 21.2912 18.8728 21.6444 18.4895 21.6789C17.6557 21.754 17.0236 21.1395 16.2167 20.6213C14.9547 19.8102 14.242 19.3055 13.0159 18.5141C11.5993 17.5995 12.5183 17.0967 13.3252 16.2753C13.5359 16.0602 17.2074 12.7886 17.2769 12.4919C17.2859 12.4548 17.2948 12.3164 17.2097 12.2435C17.1267 12.1704 17.0034 12.1954 16.9138 12.2152C16.786 12.2433 14.7709 13.5497 10.8618 16.1342C10.2903 16.5195 9.77248 16.7073 9.30626 16.6974C8.7952 16.6866 7.80896 16.4136 7.076 16.1804C6.17942 15.8942 5.46439 15.7428 5.52715 15.2568C5.55853 15.0037 5.91493 14.7448 6.59409 14.4801Z" fill="white"/>
<defs>
<linearGradient id="paint0_linear_26_337" x1="1434.64" y1="0.571411" x2="1434.64" y2="2812" gradientUnits="userSpaceOnUse">
<stop stop-color="#2AABEE"/>
<stop offset="1" stop-color="#229ED9"/>
</linearGradient>
</defs>
</svg>
