<svg width="26" height="23" viewBox="0 0 26 23" fill="none" xmlns="http://www.w3.org/2000/svg">
<path d="M22.1763 18.15V16.5H7.48883L8.42633 14.85L22.8013 13.5L25.3013 4.5H6.08258L4.98883 0H0.301331V1.5H3.73883L7.02008 14.1L4.98883 18V20.25C4.98883 21.45 6.08258 22.5 7.33258 22.5C8.58258 22.5 9.67633 21.45 9.67633 20.25C9.67633 19.05 8.58258 18 7.33258 18H19.0513V20.25C19.0513 21.45 20.1451 22.5 21.3951 22.5C22.6451 22.5 23.7388 21.45 23.7388 20.25C23.7388 19.2 23.1138 18.45 22.1763 18.15Z" fill="#2C3E50"/>
</svg>
