<svg width="51" height="45" viewBox="0 0 51 45" fill="none" xmlns="http://www.w3.org/2000/svg">
<path d="M25.5 0C11.424 0 0 10.08 0 22.5C0 34.92 11.424 45 25.5 45C39.576 45 51 34.92 51 22.5C51 10.08 39.576 0 25.5 0ZM37.332 15.3C36.9495 18.855 35.292 27.495 34.4505 31.4775C34.0935 33.165 33.3795 33.7275 32.7165 33.795C31.2375 33.9075 30.1155 32.94 28.6875 32.1075C26.4435 30.8025 25.1685 29.9925 23.001 28.7325C20.4765 27.27 22.1085 26.46 23.562 25.155C23.9445 24.8175 30.4725 19.575 30.6 19.1025C30.6177 19.0309 30.6154 18.9566 30.5931 18.8861C30.5709 18.8155 30.5295 18.7508 30.4725 18.6975C30.3195 18.585 30.1155 18.63 29.937 18.6525C29.7075 18.6975 26.1375 20.79 19.176 24.93C18.156 25.5375 17.238 25.8525 16.422 25.83C15.504 25.8075 13.77 25.38 12.4695 24.9975C10.863 24.5475 9.6135 24.3 9.7155 23.5125C9.7665 23.1075 10.404 22.7025 11.6025 22.275C19.0485 19.4175 23.9955 17.5275 26.469 16.6275C33.558 14.0175 35.0115 13.5675 35.9805 13.5675C36.1845 13.5675 36.669 13.6125 36.975 13.8375C37.23 14.0175 37.3065 14.265 37.332 14.445C37.3065 14.58 37.3575 14.985 37.332 15.3Z" fill="#ECF0F1"/>
</svg>
