<svg width="34" height="32" viewBox="0 0 34 32" fill="none" xmlns="http://www.w3.org/2000/svg">
<path d="M20.9601 22.12C18.4104 23.926 15.2307 24.7524 12.0617 24.4327C8.89258 24.113 5.96954 22.6709 3.88134 20.3969C1.79314 18.123 0.694947 15.1861 0.807983 12.178C0.92102 9.16981 2.23688 6.31387 4.49051 4.18545C6.74414 2.05702 9.76807 0.814263 12.9532 0.707506C16.1383 0.600749 19.2479 1.63793 21.6556 3.61012C24.0633 5.5823 25.5902 8.34296 25.9288 11.336C26.2673 14.329 25.3923 17.332 23.4801 19.74L33.2001 28.92L30.6801 31.3L20.9601 22.12ZM4.40006 12.6C4.40006 14.8544 5.34827 17.0164 7.0361 18.6104C8.72392 20.2045 11.0131 21.1 13.4001 21.1C15.787 21.1 18.0762 20.2045 19.764 18.6104C21.4518 17.0164 22.4001 14.8544 22.4001 12.6C22.4001 10.3457 21.4518 8.18367 19.764 6.58961C18.0762 4.99555 15.787 4.10002 13.4001 4.10002C11.0131 4.10002 8.72392 4.99555 7.0361 6.58961C5.34827 8.18367 4.40006 10.3457 4.40006 12.6Z" fill="#2C3E50"/>
</svg>
