<svg width="51" height="45" viewBox="0 0 51 45" fill="none" xmlns="http://www.w3.org/2000/svg">
<path d="M25.3725 36C26.265 36 27.0198 35.7277 27.6369 35.1832C28.254 34.6387 28.5617 33.9735 28.56 33.1875C28.56 32.4 28.2523 31.734 27.6369 31.1895C27.0215 30.645 26.2667 30.3735 25.3725 30.375C24.48 30.375 23.726 30.6472 23.1106 31.1917C22.4952 31.7362 22.1867 32.4015 22.185 33.1875C22.185 33.975 22.4935 34.641 23.1106 35.1855C23.7277 35.73 24.4817 36.0015 25.3725 36ZM23.0775 27.3375H27.795C27.795 26.1 27.9548 25.125 28.2744 24.4125C28.594 23.7 29.4967 22.725 30.9825 21.4875C32.0875 20.5125 32.9587 19.584 33.5962 18.702C34.2337 17.82 34.5525 16.761 34.5525 15.525C34.5525 13.425 33.6812 11.8125 31.9387 10.6875C30.1962 9.5625 28.135 9 25.755 9C23.3325 9 21.3664 9.5625 19.8568 10.6875C18.3472 11.8125 17.2958 13.1625 16.7025 14.7375L20.91 16.2C21.1225 15.525 21.601 14.7937 22.3456 14.0062C23.0902 13.2187 24.2267 12.825 25.755 12.825C27.115 12.825 28.135 13.1535 28.815 13.8105C29.495 14.4675 29.835 15.189 29.835 15.975C29.835 16.725 29.58 17.4285 29.07 18.0855C28.56 18.7425 27.9225 19.3515 27.1575 19.9125C25.2875 21.375 24.14 22.4812 23.715 23.2312C23.29 23.9812 23.0775 25.35 23.0775 27.3375ZM25.5 45C21.9725 45 18.6575 44.409 15.555 43.227C12.4525 42.045 9.75375 40.4422 7.45875 38.4187C5.16375 36.3937 3.3473 34.0125 2.0094 31.275C0.6715 28.5375 0.0017 25.6125 0 22.5C0 19.3875 0.6698 16.4625 2.0094 13.725C3.349 10.9875 5.16545 8.60625 7.45875 6.58125C9.75375 4.55625 12.4525 2.9535 15.555 1.773C18.6575 0.5925 21.9725 0.0015 25.5 0C29.0275 0 32.3425 0.591 35.445 1.773C38.5475 2.955 41.2462 4.55775 43.5412 6.58125C45.8362 8.60625 47.6535 10.9875 48.9931 13.725C50.3327 16.4625 51.0017 19.3875 51 22.5C51 25.6125 50.3302 28.5375 48.9906 31.275C47.651 34.0125 45.8345 36.3937 43.5412 38.4187C41.2462 40.4437 38.5475 42.0472 35.445 43.2292C32.3425 44.4112 29.0275 45.0015 25.5 45Z" fill="#ECF0F1"/>
</svg>
