<svg width="46" height="34" viewBox="0 0 46 34" fill="none" xmlns="http://www.w3.org/2000/svg">
<path d="M23 10.2C21.3364 10.2 19.7409 10.9164 18.5645 12.1917C17.3881 13.4669 16.7273 15.1965 16.7273 17C16.7273 18.8035 17.3881 20.5331 18.5645 21.8083C19.7409 23.0836 21.3364 23.8 23 23.8C24.6636 23.8 26.2591 23.0836 27.4355 21.8083C28.6119 20.5331 29.2727 18.8035 29.2727 17C29.2727 15.1965 28.6119 13.4669 27.4355 12.1917C26.2591 10.9164 24.6636 10.2 23 10.2ZM23 28.3333C20.2273 28.3333 17.5681 27.1393 15.6075 25.0139C13.6469 22.8885 12.5455 20.0058 12.5455 17C12.5455 13.9942 13.6469 11.1115 15.6075 8.98612C17.5681 6.86071 20.2273 5.66667 23 5.66667C25.7727 5.66667 28.4319 6.86071 30.3925 8.98612C32.3531 11.1115 33.4545 13.9942 33.4545 17C33.4545 20.0058 32.3531 22.8885 30.3925 25.0139C28.4319 27.1393 25.7727 28.3333 23 28.3333ZM23 0C12.5455 0 3.61727 7.04933 0 17C3.61727 26.9507 12.5455 34 23 34C33.4545 34 42.3827 26.9507 46 17C42.3827 7.04933 33.4545 0 23 0Z" fill="#2C3E50"/>
</svg>
