<svg width="263" height="118" viewBox="0 0 263 118" fill="none" xmlns="http://www.w3.org/2000/svg">
<path d="M234.713 14.1461C234.712 16.5082 235.347 18.8147 236.554 20.8476L234.597 27.7936L241.908 25.9298C243.93 27.0001 246.196 27.5609 248.498 27.561H248.504C256.104 27.561 262.291 21.5477 262.294 14.1566C262.296 10.5751 260.863 7.20727 258.259 4.6735C255.655 2.13994 252.193 0.743929 248.504 0.742294C240.902 0.742294 234.716 6.75526 234.713 14.1461" fill="url(#paint0_linear_26_354)"/>
<path d="M244.936 8.33706C244.668 7.75919 244.387 7.74753 244.132 7.7374C243.924 7.72868 243.686 7.72934 243.448 7.72934C243.21 7.72934 242.824 7.8164 242.497 8.16347C242.169 8.51087 241.247 9.35037 241.247 11.0578C241.247 12.7654 242.526 14.4155 242.705 14.6473C242.883 14.8786 245.174 18.4947 248.802 19.8858C251.817 21.0419 252.431 20.812 253.085 20.754C253.74 20.6962 255.197 19.9147 255.494 19.1043C255.792 18.294 255.792 17.5994 255.703 17.4543C255.614 17.3097 255.376 17.2228 255.019 17.0493C254.662 16.8757 252.907 16.0361 252.58 15.9203C252.252 15.8046 252.014 15.7468 251.776 16.0943C251.538 16.4413 250.855 17.2228 250.646 17.4543C250.438 17.6863 250.23 17.7151 249.873 17.5415C249.516 17.3674 248.366 17.0014 247.003 15.8192C245.941 14.8992 245.225 13.7632 245.017 13.4157C244.809 13.0688 244.995 12.8807 245.174 12.7077C245.334 12.5522 245.531 12.3025 245.709 12.0999C245.887 11.8972 245.947 11.7526 246.066 11.5212C246.185 11.2895 246.125 11.0868 246.036 10.9132C245.947 10.7396 245.253 9.02325 244.936 8.33706Z" fill="white"/>
<path d="M234.221 14.1417C234.22 16.5888 234.877 18.9778 236.127 21.0835L234.101 28.2785L241.673 26.3479C243.76 27.454 246.109 28.0372 248.5 28.0381H248.506C256.379 28.0381 262.788 21.8085 262.791 14.1528C262.793 10.4426 261.308 6.95369 258.611 4.32914C255.914 1.70493 252.327 0.258674 248.506 0.257149C240.632 0.257149 234.224 6.48588 234.221 14.1417ZM238.73 20.7209L238.448 20.2844C237.259 18.4468 236.632 16.3232 236.632 14.1426C236.635 7.77925 241.961 2.60219 248.51 2.60219C251.682 2.60349 254.663 3.80565 256.905 5.9868C259.147 8.16816 260.38 11.0679 260.379 14.1519C260.376 20.5152 255.05 25.693 248.506 25.693H248.501C246.37 25.6919 244.281 25.1355 242.458 24.084L242.024 23.8339L237.53 24.9795L238.73 20.7208V20.7209Z" fill="url(#paint1_linear_26_354)"/>
<line x1="1.48862" y1="81.0857" x2="1.48862" y2="117.4" stroke="#BDC3C7"/>
<line x1="0.988617" y1="116.9" x2="212.586" y2="116.9" stroke="#BDC3C7"/>
<line x1="0.986908" y1="81.1681" x2="212.584" y2="81.1681" stroke="#BDC3C7"/>
<path d="M111.5 104.133V102.667H99.75L100.5 101.2L112 100L114 92H98.625L97.75 88H94V89.3333H96.75L99.375 100.533L97.75 104V106C97.75 107.067 98.625 108 99.625 108C100.625 108 101.5 107.067 101.5 106C101.5 104.933 100.625 104 99.625 104H109V106C109 107.067 109.875 108 110.875 108C111.875 108 112.75 107.067 112.75 106C112.75 105.067 112.25 104.4 111.5 104.133Z" fill="#2C3E50"/>
<defs>
<linearGradient id="paint0_linear_26_354" x1="1619.45" y1="2705.87" x2="1619.45" y2="0.742294" gradientUnits="userSpaceOnUse">
<stop stop-color="#1FAF38"/>
<stop offset="1" stop-color="#60D669"/>
</linearGradient>
<linearGradient id="paint1_linear_26_354" x1="1668.64" y1="2802.39" x2="1668.64" y2="0.257149" gradientUnits="userSpaceOnUse">
<stop stop-color="#F9F9F9"/>
<stop offset="1" stop-color="white"/>
</linearGradient>
</defs>
</svg>
