<svg width="55" height="58" viewBox="0 0 55 58" fill="none" xmlns="http://www.w3.org/2000/svg">
<path d="M1.16812 28.6586C1.16684 33.5327 2.37796 38.2919 4.68089 42.4867L0.947876 56.8191L14.8963 52.9733C18.7543 55.1818 23.0768 56.339 27.4694 56.3393H27.481C41.9817 56.3393 53.7857 43.9314 53.7919 28.6804C53.7947 21.2903 51.0602 14.341 46.0922 9.11281C41.1249 3.88503 34.5187 1.00447 27.4799 1.0011C12.9774 1.0011 1.17432 13.4083 1.16833 28.6586" fill="url(#paint0_linear_28_40)"/>
<path d="M20.6725 16.6722C20.1623 15.4798 19.6253 15.4557 19.1402 15.4348C18.7429 15.4168 18.2887 15.4182 17.835 15.4182C17.3808 15.4182 16.6429 15.5978 16.0191 16.314C15.3948 17.0308 13.6354 18.7631 13.6354 22.2862C13.6354 25.8096 16.0758 29.2146 16.416 29.6928C16.7566 30.1702 21.1273 37.6316 28.0493 40.502C33.8022 42.8875 34.9729 42.413 36.2214 42.2934C37.4702 42.1743 40.2508 40.5616 40.8181 38.8894C41.3858 37.2174 41.3858 35.7842 41.2156 35.4847C41.0454 35.1864 40.5912 35.0071 39.9102 34.6492C39.2289 34.291 35.8808 32.5585 35.2566 32.3195C34.6322 32.0807 34.1783 31.9616 33.7241 32.6786C33.2699 33.3945 31.9658 35.0071 31.5683 35.4847C31.1712 35.9634 30.7737 36.023 30.0929 35.6648C29.4114 35.3055 27.2182 34.5503 24.6161 32.1108C22.5916 30.2127 21.2248 27.8686 20.8275 27.1515C20.4302 26.4356 20.7849 26.0475 21.1264 25.6907C21.4324 25.3698 21.8077 24.8545 22.1485 24.4365C22.4881 24.0183 22.6014 23.7199 22.8285 23.2423C23.0558 22.7643 22.942 22.346 22.772 21.9879C22.6014 21.6297 21.278 18.0881 20.6725 16.6722Z" fill="white"/>
<path d="M0.228796 28.6496C0.227299 33.699 1.48183 38.6284 3.86687 42.9734L0 57.8196L14.4486 53.836C18.4296 56.1184 22.9119 57.3218 27.4729 57.3236H27.4846C42.5056 57.3236 54.7336 44.4694 54.74 28.6725C54.7426 21.0168 51.9098 13.8177 46.7642 8.40221C41.618 2.98736 34.7755 0.00314791 27.4846 0C12.4611 0 0.234783 12.8525 0.228796 28.6496ZM8.83325 42.2251L8.29376 41.3246C6.02589 37.5327 4.82888 33.1508 4.83059 28.6514C4.83551 15.5212 14.9975 4.83878 27.4932 4.83878C33.5445 4.84148 39.2315 7.32203 43.5089 11.8226C47.7861 16.3237 50.1397 22.307 50.1382 28.6707C50.1327 41.8008 39.9705 52.4846 27.4846 52.4846H27.4757C23.4101 52.4824 19.4229 51.3343 15.9456 49.1647L15.1181 48.6487L6.544 51.0125L8.83325 42.2249V42.2251Z" fill="url(#paint1_linear_28_40)"/>
<defs>
<linearGradient id="paint0_linear_28_40" x1="2643.15" y1="5582.8" x2="2643.15" y2="1.0011" gradientUnits="userSpaceOnUse">
<stop stop-color="#1FAF38"/>
<stop offset="1" stop-color="#60D669"/>
</linearGradient>
<linearGradient id="paint1_linear_28_40" x1="2737" y1="5781.96" x2="2737" y2="0" gradientUnits="userSpaceOnUse">
<stop stop-color="#F9F9F9"/>
<stop offset="1" stop-color="white"/>
</linearGradient>
</defs>
</svg>
