<svg width="263" height="118" viewBox="0 0 263 118" fill="none" xmlns="http://www.w3.org/2000/svg">
<path d="M234.713 14.1461C234.712 16.5082 235.347 18.8147 236.554 20.8476L234.597 27.7936L241.908 25.9298C243.93 27.0001 246.196 27.5609 248.498 27.5611H248.504C256.104 27.5611 262.291 21.5478 262.294 14.1566C262.296 10.5751 260.863 7.20729 258.259 4.67352C255.655 2.13996 252.193 0.743944 248.504 0.74231C240.902 0.74231 234.716 6.75528 234.713 14.1461" fill="url(#paint0_linear_26_338)"/>
<path d="M244.936 8.33708C244.668 7.75921 244.387 7.74755 244.132 7.73741C243.924 7.7287 243.686 7.72935 243.448 7.72935C243.21 7.72935 242.824 7.81642 242.497 8.16349C242.169 8.51088 241.247 9.35039 241.247 11.0578C241.247 12.7654 242.526 14.4155 242.705 14.6473C242.883 14.8787 245.174 18.4947 248.802 19.8858C251.817 21.0419 252.431 20.812 253.085 20.754C253.74 20.6962 255.197 19.9147 255.494 19.1043C255.792 18.294 255.792 17.5994 255.703 17.4543C255.614 17.3097 255.376 17.2228 255.019 17.0493C254.662 16.8758 252.907 16.0361 252.58 15.9203C252.252 15.8046 252.014 15.7468 251.776 16.0943C251.538 16.4413 250.855 17.2228 250.646 17.4543C250.438 17.6863 250.23 17.7152 249.873 17.5416C249.516 17.3674 248.366 17.0014 247.003 15.8192C245.941 14.8993 245.225 13.7632 245.017 13.4157C244.809 13.0688 244.995 12.8807 245.174 12.7078C245.334 12.5523 245.531 12.3025 245.709 12.0999C245.887 11.8972 245.947 11.7526 246.066 11.5212C246.185 11.2895 246.125 11.0868 246.036 10.9132C245.947 10.7397 245.253 9.02326 244.936 8.33708Z" fill="white"/>
<path d="M234.221 14.1417C234.22 16.5888 234.877 18.9778 236.127 21.0835L234.101 28.2785L241.673 26.3479C243.76 27.454 246.109 28.0372 248.5 28.0381H248.506C256.379 28.0381 262.788 21.8085 262.791 14.1528C262.793 10.4426 261.308 6.95368 258.611 4.32914C255.914 1.70492 252.327 0.258667 248.506 0.257141C240.632 0.257141 234.224 6.48587 234.221 14.1417ZM238.73 20.7209L238.448 20.2844C237.259 18.4468 236.632 16.3231 236.632 14.1425C236.635 7.77924 241.961 2.60218 248.51 2.60218C251.682 2.60349 254.663 3.80564 256.905 5.98679C259.147 8.16815 260.38 11.0678 260.379 14.1519C260.376 20.5152 255.05 25.6929 248.506 25.6929H248.501C246.37 25.6919 244.281 25.1355 242.458 24.084L242.024 23.8339L237.53 24.9795L238.73 20.7207V20.7209Z" fill="url(#paint1_linear_26_338)"/>
<line x1="1.48862" y1="81.0857" x2="1.48862" y2="117.4" stroke="#BDC3C7"/>
<line x1="0.988617" y1="116.9" x2="212.586" y2="116.9" stroke="#BDC3C7"/>
<line x1="0.986908" y1="81.1681" x2="212.584" y2="81.1681" stroke="#BDC3C7"/>
<path d="M111.5 105.133V103.667H99.75L100.5 102.2L112 101L114 93H98.625L97.75 89H94V90.3333H96.75L99.375 101.533L97.75 105V107C97.75 108.067 98.625 109 99.625 109C100.625 109 101.5 108.067 101.5 107C101.5 105.933 100.625 105 99.625 105H109V107C109 108.067 109.875 109 110.875 109C111.875 109 112.75 108.067 112.75 107C112.75 106.067 112.25 105.4 111.5 105.133Z" fill="#2C3E50"/>
<defs>
<linearGradient id="paint0_linear_26_338" x1="1619.45" y1="2705.87" x2="1619.45" y2="0.74231" gradientUnits="userSpaceOnUse">
<stop stop-color="#1FAF38"/>
<stop offset="1" stop-color="#60D669"/>
</linearGradient>
<linearGradient id="paint1_linear_26_338" x1="1668.64" y1="2802.39" x2="1668.64" y2="0.257141" gradientUnits="userSpaceOnUse">
<stop stop-color="#F9F9F9"/>
<stop offset="1" stop-color="white"/>
</linearGradient>
</defs>
</svg>
